<svg width="128" height="128" viewBox="0 0 128 128" fill="none" xmlns="http://www.w3.org/2000/svg">
<rect width="128" height="128" rx="64" fill="#101011"/>
<path d="M63.1984 73.8491C64 76.8723 64 80.5815 64 88C56.5815 88 52.8723 88 49.8491 87.1984C41.5177 84.9894 35.0106 78.4823 32.8016 70.1509C32 67.1277 32 63.4185 32 56C39.4185 56 43.1277 56 46.1509 56.8016C54.4823 59.0106 60.9894 65.5177 63.1984 73.8491Z" fill="#3597F0"/>
<path d="M64.8016 73.8491C64 76.8723 64 80.5815 64 88C71.4185 88 75.1277 88 78.1509 87.1984C86.4823 84.9894 92.9894 78.4823 95.1984 70.1509C96 67.1277 96 63.4185 96 56C88.5815 56 84.8723 56 81.8491 56.8016C73.5177 59.0106 67.0106 65.5177 64.8016 73.8491Z" fill="#4B58F1"/>
<g filter="url(#filter0_b_544_2055)">
<path d="M73.4394 53.3182C71.8685 50.6136 69.2457 47.9908 64 42.7452C58.7543 47.9908 56.1315 50.6136 54.5606 53.3182C50.2314 60.7714 50.2314 69.9737 54.5606 77.427C56.1315 80.1315 58.7543 82.7543 64 88C69.2457 82.7543 71.8685 80.1315 73.4394 77.427C77.7686 69.9737 77.7686 60.7714 73.4394 53.3182Z" fill="#2AB6F0" fill-opacity="0.99"/>
</g>
<defs>
<filter id="filter0_b_544_2055" x="18.8137" y="10.2452" width="90.3726" height="110.255" filterUnits="userSpaceOnUse" color-interpolation-filters="sRGB">
<feFlood flood-opacity="0" result="BackgroundImageFix"/>
<feGaussianBlur in="BackgroundImageFix" stdDeviation="16.25"/>
<feComposite in2="SourceAlpha" operator="in" result="effect1_backgroundBlur_544_2055"/>
<feBlend mode="normal" in="SourceGraphic" in2="effect1_backgroundBlur_544_2055" result="shape"/>
</filter>
</defs>
</svg>
